<svg width="146" height="54" viewBox="0 0 146 54" fill="none" xmlns="http://www.w3.org/2000/svg">
<g clip-path="url(#clip0_1_5419)">
<path d="M146 43.4234H0.693848V54H146V43.4234Z" fill="white"/>
<path d="M7.21631 46.5826H8.20205V51.4665H7.21631V46.5826Z" fill="#2B3085"/>
<path d="M33.5856 49.281V46.5735H34.5744V51.5642L31.6295 48.7621V51.4696H30.6284V46.4819L33.5856 49.281Z" fill="#2B3085"/>
<path d="M59.0216 51.5855L56.8105 46.5826H57.8546L59.0216 49.2565L60.1915 46.5826H61.2479L59.0216 51.5855Z" fill="#2B3085"/>
<path d="M86.4378 46.5735V47.5503H84.4663V48.5331H85.9465V49.5129H84.4663V50.4958H86.4378V51.4695H83.4775V46.5857L86.4378 46.5735Z" fill="#2B3085"/>
<path d="M110.046 50.505C110.187 50.5061 110.323 50.4562 110.428 50.3645C110.534 50.2728 110.603 50.1458 110.621 50.0074C110.621 49.5618 110.006 49.5007 109.678 49.3817C109.371 49.3014 109.097 49.1274 108.895 48.8843C108.693 48.6411 108.573 48.3411 108.551 48.0264C108.553 47.6505 108.698 47.2893 108.957 47.0152C109.215 46.741 109.569 46.5743 109.946 46.5484C110.324 46.5225 110.697 46.6394 110.991 46.8756C111.285 47.1118 111.479 47.4499 111.533 47.8219L110.553 48.0264C110.553 47.8953 110.501 47.7695 110.407 47.6768C110.314 47.5841 110.188 47.532 110.056 47.532C109.924 47.532 109.797 47.5841 109.704 47.6768C109.611 47.7695 109.558 47.8953 109.558 48.0264C109.558 48.466 110.117 48.585 110.458 48.6858C111.072 48.8628 111.625 49.3298 111.625 50.0105C111.609 50.4124 111.436 50.7923 111.143 51.0698C110.85 51.3473 110.46 51.5005 110.056 51.497C109.686 51.4991 109.328 51.3722 109.042 51.1385C108.757 50.9048 108.564 50.579 108.496 50.2181L109.475 50.0105C109.493 50.1491 109.562 50.2762 109.669 50.3674C109.775 50.4587 109.912 50.5077 110.053 50.505H110.046Z" fill="#2B3085"/>
<path d="M137.079 46.5826V47.5564H135.875V51.4634H134.884V47.5564H133.677V46.5826H137.079Z" fill="#2B3085"/>
<path d="M39.4756 37.8131C39.4756 38.1184 39.0979 38.271 38.3425 38.271H24.8523C24.0969 38.271 23.7192 38.1092 23.7192 37.7857C23.7192 37.4285 24.2412 37.2454 25.2884 37.2454C27.1309 37.2454 28.2497 37.048 28.6448 36.6532C28.827 36.4721 28.9181 35.2684 28.9181 33.0422V5.11277C28.9181 5.1494 28.7011 5.77819 28.2671 6.99915C26.8238 11.3376 24.7203 17.8647 21.9565 26.5803L19.4415 35.1484C18.9379 36.8374 18.5765 37.6809 18.3575 37.6788C18.1057 37.6788 17.8324 37.2484 17.5468 36.3877C16.5027 33.1318 13.5547 24.9808 8.70276 11.9349L6.55317 6.19027C6.55317 6.87095 6.55317 7.80499 6.55317 8.98932V26.4826C6.55317 33.0514 6.60742 36.3704 6.71593 36.4395C6.96774 36.9076 7.83371 37.1416 9.31386 37.1416C10.5053 37.1416 11.1011 37.3197 11.1011 37.6758C11.1011 38.0726 10.7234 38.271 9.96488 38.271C9.52957 38.2734 9.0949 38.2376 8.66591 38.1642C8.21771 38.0955 7.76514 38.0588 7.31167 38.0543L1.08401 38.271C0.432988 38.271 0.107479 38.1092 0.107479 37.7857C0.107479 37.4275 1.13723 37.2301 3.19674 37.1935C4.06272 37.1935 4.56736 37.05 4.71067 36.7631C4.855 36.4762 4.9287 35.5421 4.9287 33.9579V8.1377C4.9287 5.15652 4.89185 3.53977 4.81815 3.28744C4.76047 3.05473 4.64635 2.83959 4.48577 2.66082C4.32518 2.48204 4.123 2.34506 3.8969 2.26183C3.43013 2.08174 2.41675 1.93828 0.865977 1.83144C0.288659 1.79481 0 1.63304 0 1.34611C0 0.953369 0.529208 0.75598 1.58762 0.753945H5.36783C7.51946 0.753945 9.03441 0.740718 9.91267 0.714264C10.0908 1.1823 11.1379 4.00577 13.0541 9.18467C13.873 11.3417 16.1843 17.6357 19.9881 28.0668C20.6821 25.7246 21.3986 23.42 22.1377 21.1531L27.917 3.35764C28.2763 2.33509 28.5957 1.48347 28.8659 0.805836L36.8501 0.753945C38.019 0.753945 38.6936 0.807871 38.8738 0.915722C38.9589 0.964411 39.0288 1.03546 39.0759 1.12108C39.1231 1.2067 39.1455 1.30357 39.1409 1.40105C39.1409 1.76124 38.8338 1.94133 38.2197 1.94133C37.532 1.92089 36.8438 1.95765 36.1622 2.05121C35.2962 2.1957 34.7005 2.48262 34.375 2.91199C34.1928 3.16636 34.1027 5.27251 34.1047 9.23046V34.3334C34.1047 35.7711 34.246 36.6196 34.5377 36.8699C35.0045 37.1935 36.1806 37.3553 38.0569 37.3553H38.3855C39.1071 37.3553 39.4664 37.5079 39.4664 37.8131" fill="white"/>
<path d="M79.5499 1.2881C79.5499 1.59333 79.2244 1.72154 78.5734 1.72154H76.7309C75.828 1.72154 75.2845 1.95657 75.1064 2.42054C75.0182 2.82645 74.9821 3.24183 74.9989 3.65676V23.8087C74.9989 29.0385 74.0142 32.8448 72.0448 35.2277C70.0753 37.6106 66.9083 38.8021 62.5436 38.8021C57.3068 38.8021 53.6218 37.3308 51.4886 34.3883C50.0821 32.4165 49.3779 29.1697 49.3758 24.6481V3.06764C49.2683 2.42359 48.8292 2.02678 48.0615 1.88331C47.8465 1.84872 47.173 1.83142 46.0409 1.83142C45.4267 1.75816 45.1196 1.58113 45.1196 1.29115C45.1196 1.00117 45.3714 0.808868 45.8781 0.808868H58.0387C58.6528 0.808868 58.9599 1.00422 58.9599 1.39798C58.976 1.49581 58.9529 1.59602 58.8955 1.67707C58.838 1.75812 58.7509 1.81354 58.6528 1.83142C58.4358 1.86398 57.7193 1.89959 56.5032 1.93826C56.1558 1.91944 55.8075 1.9555 55.4714 2.04509C55.3089 2.09782 55.1658 2.19734 55.0603 2.33103C54.9548 2.46472 54.8916 2.62654 54.8788 2.79598C54.8419 2.93843 54.8235 3.95589 54.8235 5.84838V25.0785C54.8235 29.8016 55.581 33.0219 57.0959 34.7393C58.6109 36.4568 60.8628 37.3156 63.8518 37.3156C69.3404 37.3156 72.445 34.2245 73.1656 28.0424C73.2721 27.1144 73.3263 23.185 73.3284 16.254V3.43393C73.3589 3.09403 73.2582 2.7553 73.0466 2.48657C72.835 2.21784 72.5284 2.03926 72.1891 1.98709C71.4538 1.88437 70.7107 1.84861 69.9689 1.88026C69.2472 1.88026 68.8879 1.68185 68.8879 1.2881C68.8879 0.982855 69.1397 0.808868 69.6495 0.808868H78.3062C79.1415 0.808868 79.5591 0.967593 79.5591 1.2881" fill="white"/>
<path d="M109.494 27.6669C109.494 30.7539 108.311 33.3821 105.947 35.5513C103.641 37.7012 100.58 38.87 97.4192 38.8082C95.4682 38.8082 93.1394 38.216 90.433 37.0317C89.9269 36.7708 89.3757 36.6072 88.8085 36.5494C88.3766 36.5494 88.1053 37.046 87.9948 38.039C87.9579 38.5518 87.7245 38.8082 87.2916 38.8082C86.9292 38.8082 86.7511 38.5945 86.7511 38.1641C86.7453 37.9472 86.7628 37.7303 86.8033 37.517C87.0806 35.5028 87.2263 33.4727 87.2393 31.4397C87.2393 31.0795 87.2025 30.0743 87.1288 28.4239C87.0872 28.1389 87.0687 27.8511 87.0735 27.5632C87.0735 27.0259 87.2916 26.7543 87.7245 26.7543C88.0838 26.7543 88.3387 27.1908 88.483 28.0607C89.4227 34.5094 92.4731 37.7348 97.6341 37.7368C99.837 37.7368 101.543 37.1172 102.753 35.8779C103.963 34.6386 104.567 32.8896 104.565 30.6308C104.614 28.7636 103.99 26.9405 102.805 25.4906C101.632 24.0661 99.6199 22.658 96.7682 21.2661C93.3391 19.5771 90.9561 17.9491 89.6192 16.3822C88.2824 14.8153 87.615 12.8598 87.6171 10.5155C87.6171 7.53637 88.5823 5.07817 90.5129 3.14091C92.4434 1.20366 94.8898 0.228925 97.8522 0.216715C99.0805 0.216715 100.777 0.628789 102.941 1.45294C103.473 1.68587 104.041 1.83123 104.62 1.88333C104.759 1.90123 104.9 1.89156 105.035 1.85488C105.17 1.8182 105.296 1.75524 105.406 1.66966C105.602 1.32103 105.722 0.935058 105.757 0.537217C105.766 0.38824 105.834 0.248805 105.945 0.148504C106.056 0.0482033 106.202 -0.00506826 106.352 -5.18103e-06C106.715 -5.18103e-06 106.896 0.216715 106.896 0.647103C106.902 0.863191 106.884 1.07932 106.841 1.29116C106.723 2.32781 106.669 3.37058 106.678 4.41376C106.652 5.7823 106.742 7.15055 106.948 8.50398L107.003 9.36476C107.037 9.76157 106.877 9.95692 106.515 9.95692C106.153 9.95692 105.849 9.54485 105.704 8.73596C105.358 6.71547 104.372 4.85778 102.888 3.43394C101.408 2.00949 99.7469 1.29726 97.9044 1.29726C96.0987 1.29726 94.6657 1.87213 93.6052 3.02187C92.5447 4.17161 92.0125 5.7324 92.0084 7.70425C92.0084 9.99966 92.7853 11.8474 94.3391 13.2474C95.2051 14.037 97.0814 15.1491 99.968 16.5837C103.362 18.2727 105.799 19.9871 107.28 21.727C108.725 23.3731 109.515 25.4881 109.5 27.673" fill="white"/>
<path d="M145.831 10.3782C145.831 10.8452 145.613 11.0802 145.18 11.0802C144.747 11.0802 144.44 10.6132 144.259 9.67915C144.188 9.0351 144.115 8.38799 144.044 7.74088C143.837 6.58199 143.413 5.47202 142.794 4.46871C142.037 3.28438 140.791 2.53043 139.057 2.20688C138.167 2.01135 137.257 1.92119 136.345 1.93827C134.647 1.98711 133.619 2.02068 133.256 2.0451V34.5532C133.256 35.8474 133.6 36.6613 134.288 36.9951C134.648 37.1741 135.659 37.282 137.319 37.3186C137.752 37.3522 137.97 37.5048 137.97 37.7734C137.97 38.042 137.678 38.2313 137.101 38.2313C136.847 38.2253 136.595 38.1998 136.345 38.155C134.177 38.0817 132.642 38.0451 131.739 38.0451C130.548 38.0451 129.428 38.0726 128.38 38.1275C127.332 38.1825 125.996 38.2089 124.372 38.2069C123.543 38.2069 123.129 38.0634 123.129 37.7765C123.129 37.4529 123.902 37.2728 125.456 37.2362C126.574 37.2362 127.299 37.0042 127.621 36.5372C127.802 36.2503 127.895 35.5116 127.895 34.3273V2.0451C124.32 2.08173 122.1 2.2608 121.234 2.58232C118.959 3.40851 117.624 5.61539 117.226 9.20298C117.116 10.2815 116.863 10.8197 116.468 10.8177C116.035 10.8177 115.817 10.4423 115.817 9.68831C115.817 9.29455 115.835 8.90079 115.872 8.50398L115.98 7.26776C116.086 5.61743 116.249 3.44615 116.468 0.753937H118.903L129.958 0.915714C131.256 0.952343 133.278 0.952343 136.023 0.915714L145.011 0.753937C145.085 2.76242 145.319 5.74054 145.715 9.68831C145.718 9.82421 145.737 9.95932 145.77 10.0912C145.796 10.1915 145.814 10.2935 145.825 10.3965" fill="white"/>
</g>
<defs>
<clipPath id="clip0_1_5419">
<rect width="146" height="54" fill="white"/>
</clipPath>
</defs>
</svg>
